<?xml version="1.0" encoding="utf-8"?>
<!-- Generator: Adobe Illustrator 23.0.1, SVG Export Plug-In . SVG Version: 6.00 Build 0)  -->
<svg version="1.1" id="Layer_1" xmlns="http://www.w3.org/2000/svg" xmlns:xlink="http://www.w3.org/1999/xlink" x="0px" y="0px"
	 viewBox="0 0 512 512" style="enable-background:new 0 0 512 512;" xml:space="preserve">
<style type="text/css">
	.st0{fill-rule:evenodd;clip-rule:evenodd;fill:#010101;}
</style>
<title>01</title>
<g>
	<path class="st0" d="M256,6C118.2,6,6,118.2,6,256s112.2,250,250,250s250-112.1,250-250S393.9,6,256,6z M256,479.1
		C133,479.1,32.9,379,32.9,256S133,32.9,256,32.9v0C379,32.9,479.1,133,479.1,256S379,479.1,256,479.1z"/>
	<path class="st0" d="M399.7,164.8c-9.2,4.2-19.4,6.7-29.4,8.4c4.7-0.8,11.7-9.4,14.5-12.9c4.4-5.3,7.7-11.3,9.8-17.8
		c0.2-0.5,0.5-1.2-0.1-1.5c-0.5-0.2-1.1-0.2-1.6,0.1c-11.1,5.9-22.8,10.4-35,13.4c-0.9,0.3-1.8,0-2.4-0.6c-0.9-1.1-2-2.2-3-3.1
		c-5.1-4.3-10.8-7.9-16.9-10.4c-8.2-3.3-17.1-4.8-26-4.2c-8.6,0.6-17,3-24.6,7c-7.7,4-14.4,9.5-19.9,16.2c-5.7,7-9.7,15.1-11.9,23.8
		c-2,8.4-1.9,16.7-0.6,25.1c0.2,1.4,0.1,1.6-1.2,1.4c-48-7.1-87.8-24.3-120.1-61.2c-1.4-1.6-2.2-1.6-3.3,0.1
		c-14.1,21.2-7.3,55.2,10.4,72c2.3,2.2,4.8,4.5,7.4,6.5c-1,0.2-12.7-1.1-23.2-6.5c-1.4-0.9-2.1-0.4-2.2,1.2c-0.1,2.3,0,4.6,0.4,6.9
		c2.7,21.5,17.6,41.3,38,49.1c2.5,1.1,5.1,1.9,7.7,2.4c-4.6,1-9.4,1.8-22.7,0.7c-1.7-0.3-2.3,0.5-1.7,2.1c10,27.3,31.6,35.4,47.8,40
		c2.2,0.4,4.3,0.4,6.5,0.9c-0.1,0.2-0.3,0.2-0.4,0.4c-5.4,8.2-24,14.3-32.6,17.3c-15.9,5.7-32.8,7.8-49.5,6.3c-2.7-0.4-3.2-0.4-4,0
		c-0.8,0.4-0.1,1.1,0.8,1.8c3.4,2.2,6.8,4.2,10.3,6.1c10.6,5.6,21.7,10,33.2,13.2c59.5,16.4,126.6,4.4,171.3-40
		c35.1-34.9,47.4-83,47.4-131.1c0-1.9,2.2-2.9,3.5-3.9c9.1-6.9,16.4-15.1,23.2-24.2c1-1.3,1.5-3,1.4-4.6v-0.3
		C400.8,164,400.9,164.2,399.7,164.8z"/>
</g>
</svg>
